<?xml version="1.0" encoding="utf-8"?>
<!-- Generator: Adobe Illustrator 24.0.2, SVG Export Plug-In . SVG Version: 6.00 Build 0)  -->
<svg version="1.1" id="Capa_1" xmlns="http://www.w3.org/2000/svg" xmlns:xlink="http://www.w3.org/1999/xlink" x="0px" y="0px"
	 viewBox="0 0 110 110" style="enable-background:new 0 0 110 110;" xml:space="preserve">
<style type="text/css">
	.st0{fill:#25B7D3;}
	.st1{fill:#FBEC9A;}
	.st2{fill:#FACB1B;}
	.st3{fill:#F0F1F1;}
	.st4{fill:#FFFFFF;}
</style>
<g id="Artboard">
</g>
<g id="Multicolor">
	<circle class="st0" cx="55" cy="55" r="55"/>
	<g>
		<g>
			<polygon class="st1" points="62.7,44 56.8,47.7 60.1,53.9 53.1,54.1 52.9,61.1 46.7,57.8 43,63.7 39.3,57.8 33.1,61.1 32.9,54.1 
				25.9,53.9 29.2,47.7 23.3,44 29.2,40.3 25.9,34.1 32.9,33.9 33.1,26.9 39.3,30.2 43,24.3 46.7,30.2 52.9,26.9 53.1,33.9 
				60.1,34.1 56.8,40.3 			"/>
		</g>
		<g>
			<circle class="st2" cx="43" cy="44" r="12"/>
		</g>
		<g>
			<path class="st3" d="M87,58c0-4.9-3.5-9-8.2-9.8C76.6,42.8,71.2,39,65,39c-5.4,0-10.1,2.9-12.8,7.2C50.3,44.8,48,44,45.5,44
				c-5.2,0-9.7,3.5-11,8.3C28.6,50.8,23,54.7,23,60c0,5.2,5.5,9.1,11.3,7.7c1.6,2.6,4.4,4.3,7.7,4.3c2.8,0,5.3-1.3,7-3.3
				c2.7,5,8,8.3,14,8.3c6.3,0,11.8-3.7,14.4-9C82.7,67.8,87,63.4,87,58z"/>
		</g>
		<g>
			<path class="st4" d="M65.1,39c-5.4,0-10.1,2.9-12.8,7.2c-1.9-1.4-4.2-2.2-6.7-2.2c-5.2,0-9.7,3.5-11,8.3
				c-5.8-1.5-11.5,2.4-11.5,7.7c0,5.2,5.5,9.1,11.3,7.7c1.6,2.6,4.4,4.3,7.7,4.3c2.3,0,4.4-0.9,6-2.3c0,0,0.9-0.9,0.9-0.9L75,42.8
				C72.4,40.4,68.9,39,65.1,39z"/>
		</g>
	</g>
</g>
</svg>
