<svg id="a76cc14c-2658-44fd-8b04-6d014e7291a3" data-name="Capa 1" xmlns="http://www.w3.org/2000/svg" viewBox="0 0 76.06 90.14"><defs><style>.a73b44b5-7a11-4a33-96a3-5564c8c44dd5{fill:#37323e;}</style></defs><title>maxima</title><path class="a73b44b5-7a11-4a33-96a3-5564c8c44dd5" d="M21.08,94.33a2.93,2.93,0,0,1-.31-4.14C24.38,86,27.5,82.34,27.5,74.75s-3.12-11.22-6.73-15.43c-3.82-4.45-8.15-9.49-8.15-19.25a24.59,24.59,0,0,1,2.65-11.63,26.14,26.14,0,0,1,2-3.3,0,0,0,0,1,0,0c.67-.81,1.31-1.62,1.9-2.46A18,18,0,0,0,22.64,13l-3.29,3.29a2.5,2.5,0,0,1-1.77.74,2.46,2.46,0,0,1-1.76-.74,2.49,2.49,0,0,1,0-3.53l6.36-6.36.71-.71a2.5,2.5,0,0,1,1.77-.74,2.44,2.44,0,0,1,.66.09,3,3,0,0,1,1.57.73L28.3,7.13,34,12.79a2.5,2.5,0,1,1-3.54,3.53l-2-2a23.59,23.59,0,0,1-2.5,8.56,26,26,0,0,1-2,3.29s0,0,0,0a30,30,0,0,0-2,2.58.08.08,0,0,0,0,0A18.49,18.49,0,0,0,18.5,40.07c0,7.58,3.12,11.22,6.73,15.43C29.05,60,33.38,65,33.38,74.75S29.05,89.56,25.23,94A2.94,2.94,0,0,1,21.08,94.33Z" transform="translate(-12.62 -4.9)"/><path class="a73b44b5-7a11-4a33-96a3-5564c8c44dd5" d="M47.07,94.33a2.93,2.93,0,0,1-.31-4.14c3.61-4.21,6.73-7.85,6.73-15.44s-3.12-11.22-6.73-15.43c-3.82-4.45-8.15-9.49-8.15-19.25a24.59,24.59,0,0,1,2.65-11.63,26.14,26.14,0,0,1,2-3.3,0,0,0,0,1,0,0c.67-.81,1.31-1.62,1.9-2.46A18,18,0,0,0,48.63,13l-3.29,3.29a2.5,2.5,0,0,1-1.77.74,2.46,2.46,0,0,1-1.76-.74,2.49,2.49,0,0,1,0-3.53l6.36-6.36.71-.71a2.5,2.5,0,0,1,1.77-.74,2.44,2.44,0,0,1,.66.09,3,3,0,0,1,1.57.73l1.41,1.41L60,12.79a2.5,2.5,0,1,1-3.54,3.53l-2-2a23.59,23.59,0,0,1-2.5,8.56,26,26,0,0,1-2,3.29s0,0,0,0a30,30,0,0,0-2,2.58l0,0a18.49,18.49,0,0,0-3.38,11.25c0,7.58,3.12,11.22,6.73,15.43C55,60,59.37,65,59.37,74.75S55,89.56,51.22,94A2.94,2.94,0,0,1,47.07,94.33Z" transform="translate(-12.62 -4.9)"/><path class="a73b44b5-7a11-4a33-96a3-5564c8c44dd5" d="M75.07,94.33a2.93,2.93,0,0,1-.31-4.14c3.61-4.21,6.73-7.85,6.73-15.44s-3.12-11.22-6.73-15.43c-3.82-4.45-8.15-9.49-8.15-19.25a24.59,24.59,0,0,1,2.65-11.63,26.14,26.14,0,0,1,2-3.3,0,0,0,0,1,0,0c.67-.81,1.31-1.62,1.9-2.46A18,18,0,0,0,76.63,13l-3.29,3.29a2.5,2.5,0,0,1-1.77.74,2.46,2.46,0,0,1-1.76-.74,2.49,2.49,0,0,1,0-3.53l6.36-6.36.71-.71a2.5,2.5,0,0,1,1.77-.74,2.44,2.44,0,0,1,.66.09,3,3,0,0,1,1.57.73l1.41,1.41L88,12.79a2.5,2.5,0,1,1-3.54,3.53l-2-2a23.59,23.59,0,0,1-2.5,8.56,26,26,0,0,1-2,3.29s0,0,0,0a30,30,0,0,0-2,2.58.08.08,0,0,0,0,0,18.49,18.49,0,0,0-3.38,11.25c0,7.58,3.12,11.22,6.73,15.43C83,60,87.37,65,87.37,74.75S83,89.56,79.22,94A2.94,2.94,0,0,1,75.07,94.33Z" transform="translate(-12.62 -4.9)"/></svg>