<svg id="b7231154-fbd0-46d0-b8e2-ccd0f0596481" data-name="Capa 1" xmlns="http://www.w3.org/2000/svg" viewBox="0 0 76.06 90.14"><defs><style>.f9021b51-9aa6-497d-a3eb-287b7f0a3bc6{fill:#37323e;}</style></defs><title>minima</title><path class="f9021b51-9aa6-497d-a3eb-287b7f0a3bc6" d="M80.22,5.61a2.93,2.93,0,0,1,.31,4.14C76.92,14,73.8,17.6,73.8,25.19s3.12,11.22,6.73,15.43c3.82,4.45,8.15,9.49,8.15,19.25A24.59,24.59,0,0,1,86,71.5a26.14,26.14,0,0,1-2,3.3,0,0,0,0,1,0,0c-.67.81-1.31,1.62-1.9,2.46A18,18,0,0,0,78.66,87L82,83.7A2.5,2.5,0,0,1,83.72,83a2.46,2.46,0,0,1,1.76.74,2.49,2.49,0,0,1,0,3.53l-6.36,6.36-.71.71a2.5,2.5,0,0,1-1.77.74A2.44,2.44,0,0,1,76,95a3,3,0,0,1-1.57-.73L73,92.81l-5.66-5.66a2.5,2.5,0,1,1,3.54-3.53l2,2a23.59,23.59,0,0,1,2.5-8.56,26,26,0,0,1,2-3.29s0,0,0,0a30,30,0,0,0,2-2.58.08.08,0,0,0,0,0A18.49,18.49,0,0,0,82.8,59.87c0-7.58-3.12-11.22-6.73-15.43C72.25,40,67.92,35,67.92,25.19s4.33-14.81,8.15-19.26A2.94,2.94,0,0,1,80.22,5.61Z" transform="translate(-12.62 -4.9)"/><path class="f9021b51-9aa6-497d-a3eb-287b7f0a3bc6" d="M54.22,5.61a2.93,2.93,0,0,1,.31,4.14C50.92,14,47.8,17.6,47.8,25.19s3.12,11.22,6.73,15.43c3.82,4.45,8.15,9.49,8.15,19.25A24.59,24.59,0,0,1,60,71.5a26.14,26.14,0,0,1-2,3.3,0,0,0,0,1,0,0c-.67.81-1.31,1.62-1.9,2.46A18,18,0,0,0,52.66,87L56,83.7A2.5,2.5,0,0,1,57.72,83a2.46,2.46,0,0,1,1.76.74,2.49,2.49,0,0,1,0,3.53l-6.36,6.36-.71.71a2.5,2.5,0,0,1-1.77.74A2.44,2.44,0,0,1,50,95a3,3,0,0,1-1.57-.73L47,92.81l-5.66-5.66a2.5,2.5,0,1,1,3.54-3.53l2,2a23.59,23.59,0,0,1,2.5-8.56,26,26,0,0,1,2-3.29s0,0,0,0a30,30,0,0,0,2-2.58.08.08,0,0,0,0,0A18.49,18.49,0,0,0,56.8,59.87c0-7.58-3.12-11.22-6.73-15.43C46.25,40,41.92,35,41.92,25.19s4.33-14.81,8.15-19.26A2.94,2.94,0,0,1,54.22,5.61Z" transform="translate(-12.62 -4.9)"/><path class="f9021b51-9aa6-497d-a3eb-287b7f0a3bc6" d="M26.22,5.61a2.93,2.93,0,0,1,.31,4.14C22.92,14,19.8,17.6,19.8,25.19s3.12,11.22,6.73,15.43c3.82,4.45,8.15,9.49,8.15,19.25A24.59,24.59,0,0,1,32,71.5a26.14,26.14,0,0,1-2,3.3,0,0,0,0,1,0,0c-.67.81-1.31,1.62-1.9,2.46A18,18,0,0,0,24.66,87L28,83.7A2.5,2.5,0,0,1,29.72,83a2.46,2.46,0,0,1,1.76.74,2.49,2.49,0,0,1,0,3.53l-6.36,6.36-.71.71a2.5,2.5,0,0,1-1.77.74A2.44,2.44,0,0,1,22,95a3,3,0,0,1-1.57-.73L19,92.81l-5.66-5.66a2.5,2.5,0,1,1,3.54-3.53l2,2a23.59,23.59,0,0,1,2.5-8.56,26,26,0,0,1,2-3.29s0,0,0,0a30,30,0,0,0,2-2.58.08.08,0,0,0,0,0A18.49,18.49,0,0,0,28.8,59.87c0-7.58-3.12-11.22-6.73-15.43C18.25,40,13.92,35,13.92,25.19s4.33-14.81,8.15-19.26A2.94,2.94,0,0,1,26.22,5.61Z" transform="translate(-12.62 -4.9)"/></svg>