<svg xmlns="http://www.w3.org/2000/svg" viewBox="0 0 512 396.64"><defs><style>.b561ff41-2e82-4d6e-bc7d-00d62dfa7682,.f7831593-4b07-4fc3-8076-5f21e5a83ef1{fill-rule:evenodd;}.f7831593-4b07-4fc3-8076-5f21e5a83ef1{fill:#d33535;}</style></defs><title>not-found</title><g id="f41fe2c4-0e6e-41aa-8613-0ef85be3cec7" data-name="Capa 2"><g id="bafdce3c-ff13-46d4-9b65-7b99e850e3d8" data-name="Capa 1"><path d="M338.2,189A102.16,102.16,0,0,0,328,187.36a67.5,67.5,0,0,1,.92,15.35,86.32,86.32,0,0,1,9.74,2A76.84,76.84,0,0,0,338.2,189ZM218.32,250.69a99.6,99.6,0,0,0-3.54,9.79A75.78,75.78,0,0,0,228,268.62a91.07,91.07,0,0,1,3-9.52A66.35,66.35,0,0,1,218.32,250.69Zm243.36-18.8A109.55,109.55,0,0,0,452.61,173a54.39,54.39,0,0,0,49.24-34.74,7.5,7.5,0,0,0-14-5.31A39.33,39.33,0,0,1,451.11,158H444.3a110,110,0,0,0-122.21-45.43c-2.75.79-4.43,1.39-4.83,1.44-1.82.23-1.9-1.82-8.95-9.62-1.2-1.33-2.6-2.82-4.24-4.49a132.82,132.82,0,0,0-62.64-36.06A56.2,56.2,0,0,1,301,48.13a13.28,13.28,0,0,0,14.79-4.68A71.5,71.5,0,0,1,443.42,75,7.53,7.53,0,0,0,451,81.25h.87a38.48,38.48,0,0,1,34.93,22.46,7.5,7.5,0,0,0,13.64-6.24,53.54,53.54,0,0,0-43.42-31,86.49,86.49,0,0,0-152.5-33,71.29,71.29,0,0,0-79.75,27.24,137.62,137.62,0,0,0-16.56-1A134.51,134.51,0,0,0,76.67,166.28,81.2,81.2,0,0,0,0,248.79c.74,44,37.72,79.86,82.45,79.86h71.12c-2.22,37.66,28.54,68,64.91,68H312a7.5,7.5,0,0,0,0-15H218.49c-27.14,0-49.59-21.66-50-48.28A49.48,49.48,0,0,1,201.73,286a45.09,45.09,0,0,1,14.64-2.56,95.16,95.16,0,0,1-17.59-12.22,62.16,62.16,0,0,0-10.13,4.08,64.3,64.3,0,0,0-32.39,38.39H82.46c-36.59,0-66.85-29.21-67.45-65.11a66.2,66.2,0,0,1,66.23-67.38l.8,0,.71,0h.16a7.51,7.51,0,0,0,7.41-6.3A119.36,119.36,0,0,1,290.88,108a94.77,94.77,0,0,1,34.06,19.4,94.7,94.7,0,0,1,11.5-2.71c59.72-10.23,116.08,39.42,110.69,102.07a86.13,86.13,0,0,0-48.39,1.6,106,106,0,0,0-31.53-28.08,100.51,100.51,0,0,0-9.94-5,93.88,93.88,0,0,1-.74,16.41,84.1,84.1,0,0,1,9.14,5.49,91,91,0,0,1,21.19,20.35,14.67,14.67,0,0,0,16.3,5.18c44.76-14.94,91.77,17.61,93.78,64.5a71.25,71.25,0,0,1-71.24,74.47H347a7.5,7.5,0,0,0,0,15H425.7A85.58,85.58,0,0,0,488,370C528.92,327.34,515.78,256.86,461.68,231.89ZM268.62,199.08l2.67-2.67a104.76,104.76,0,0,0-40,31.72h0a5.3,5.3,0,0,0,.58.69,4.94,4.94,0,0,0,7,0l22.78-22.78,7.86,7.86a88.55,88.55,0,0,1,9.3-4.64Z"/></g><g id="e9518c8d-62d5-45ed-a8cb-29ba2d69ba40" data-name="Capa 2"><path class="b561ff41-2e82-4d6e-bc7d-00d62dfa7682" d="M338.64,204.72A77.27,77.27,0,0,1,228,268.62a75.78,75.78,0,0,1-13.24-8.14,77.26,77.26,0,0,1,22.67-134.76,4.93,4.93,0,1,1,3.08,9.36A66.68,66.68,0,0,0,214,151.43a67.47,67.47,0,0,0,0,95.3c1.39,1.39,2.84,2.72,4.32,4A66.35,66.35,0,0,0,231,259.1,67.39,67.39,0,1,0,276.9,133.44a4.93,4.93,0,0,1,2.22-9.6,77.2,77.2,0,0,1,59.52,80.88Z"/><path class="b561ff41-2e82-4d6e-bc7d-00d62dfa7682" d="M402.35,307.33l-51.63-51.64a105.39,105.39,0,0,0-14.28-131l-.18-.18a106.24,106.24,0,0,0-14.17-11.9,102.62,102.62,0,0,0-13.78-8.18A105.54,105.54,0,0,0,187,273.69c.53.53,1.07,1.06,1.61,1.57a105.58,105.58,0,0,0,129.61,12.89l51.63,51.64a23,23,0,1,0,32.46-32.46Zm-7,25.49a13.17,13.17,0,0,1-18.53,0l-54.49-54.49a4.95,4.95,0,0,0-6.29-.57,95.36,95.36,0,0,1-117.3-6.58q-2.44-2.13-4.77-4.46A95.71,95.71,0,0,1,290.88,108a94.77,94.77,0,0,1,34.06,19.4c1.49,1.3,2.94,2.67,4.35,4.08a95.49,95.49,0,0,1,28,63.79,93.88,93.88,0,0,1-.74,16.41,95.08,95.08,0,0,1-16.2,41.87,4.93,4.93,0,0,0,.57,6.3l54.49,54.49A13.12,13.12,0,0,1,395.39,332.82Z"/><path class="f7831593-4b07-4fc3-8076-5f21e5a83ef1" d="M291.4,221.86a4.93,4.93,0,0,1-7,7l-14.92-14.92-7.86-7.86-22.78,22.78a4.94,4.94,0,0,1-7,0,5.3,5.3,0,0,1-.58-.69h0a4.93,4.93,0,0,1,.58-6.27l22.78-22.78L231.9,176.3a4.93,4.93,0,1,1,7-7l22.78,22.77,22.78-22.77a4.92,4.92,0,0,1,7,7l-22.78,22.78,10.19,10.19Z"/><path class="b561ff41-2e82-4d6e-bc7d-00d62dfa7682" d="M258.38,131.77a4.93,4.93,0,1,0-4.92-4.93A4.93,4.93,0,0,0,258.38,131.77Z"/></g></g></svg>