<?xml version="1.0" encoding="iso-8859-1"?>
<!-- Generator: Adobe Illustrator 19.0.0, SVG Export Plug-In . SVG Version: 6.00 Build 0)  -->
<svg version="1.1" id="Capa_1" xmlns="http://www.w3.org/2000/svg" xmlns:xlink="http://www.w3.org/1999/xlink" x="0px" y="0px"
	 viewBox="0 0 512 512" style="enable-background:new 0 0 512 512;" xml:space="preserve">
<g>
	<g>
		<path d="M461.677,289.571c2.394-19.692-0.431-40.011-9.068-58.921c21.876-0.608,41.538-14.409,49.237-34.742
			c1.467-3.874-0.484-8.204-4.358-9.671c-3.875-1.467-8.204,0.484-9.671,4.358c-5.68,15.002-20.434,25.082-36.711,25.082h-6.803
			c-18.947-28.659-50.396-47.403-85.34-49.467c-23.783-1.408-40.318,5.297-41.702,5.479c-2.127,0.273-1.878-2.581-13.192-14.112
			c-17.337-17.715-38.913-30.081-62.639-36.06c15.241-16.857,38.62-22.692,59.563-15.703c5.373,1.792,11.318-0.09,14.791-4.687
			c13.657-18.076,34.462-28.441,57.081-28.441c35.243,0,64.915,25.212,70.555,59.949c0.6,3.694,3.878,6.387,7.573,6.297l0.466-0.014
			c0.134-0.005,0.268-0.011,0.403-0.011c14.985,0,28.695,8.816,34.929,22.46c1.722,3.768,6.172,5.426,9.939,3.705
			c3.768-1.721,5.426-6.172,3.705-9.939c-7.947-17.393-24.637-29.144-43.421-30.976c-4.197-17.661-13.935-33.685-27.837-45.625
			c-15.653-13.444-35.652-20.848-56.312-20.848c-26.986,0-51.837,12.194-68.36,33.5c-8.268-2.593-16.878-3.644-25.616-3.129
			c-21.736,1.285-41.619,12.53-54.131,30.362c-5.445-0.661-10.97-1.006-16.555-1.006c-32.115,0-63.201,11.508-87.533,32.406
			c-22.454,19.285-37.92,45.424-43.998,74.146c-43.101,2.369-77.396,38.387-76.659,82.505c0.735,44.035,37.72,79.86,82.447,79.86
			h71.117c-2.221,37.667,28.543,67.989,64.917,67.989h93.513c4.142,0,7.501-3.358,7.501-7.501s-3.358-7.501-7.501-7.501h-93.513
			c-27.148,0-49.597-21.656-50.042-48.275c-0.487-29.171,24.31-50.814,49.668-49.946c4.668,0.14,7.571-2.853,8.127-6.281
			c12.758-78.591,113.269-102.318,160.617-39.653c3.833,5.072,10.384,7.149,16.294,5.176c44.758-14.934,91.769,17.617,93.784,64.508
			c1.766,41.103-30.995,74.469-71.246,74.469h-78.687c-4.142,0-7.501,3.358-7.501,7.501s3.358,7.501,7.501,7.501h78.687
			c23.758,0,45.898-9.452,62.338-26.613C528.919,385.019,515.775,314.537,461.677,289.571z M447.132,284.399
			c-15.845-4.078-32.652-3.582-48.394,1.6c-54.736-72.238-166.896-45.174-186.113,40.264c-26.968,2.033-48.886,20.664-56.363,45.063
			H82.457c-36.591,0-66.849-29.207-67.448-65.108c-0.62-37.127,29.222-67.378,66.233-67.378c0.268,0,0.533,0.01,0.798,0.02
			l0.706,0.021c0.056,0.001,0.111,0.002,0.167,0.002c3.668,0,6.811-2.661,7.402-6.299c9.422-58.042,59-100.169,117.885-100.169
			c37.266,0,72.427,17.161,95.367,47.517c4.324,5.725,11.83,8.25,18.696,5.958C386.867,164.341,452.949,216.801,447.132,284.399z"/>
	</g>
</g>
<g>
</g>
<g>
</g>
<g>
</g>
<g>
</g>
<g>
</g>
<g>
</g>
<g>
</g>
<g>
</g>
<g>
</g>
<g>
</g>
<g>
</g>
<g>
</g>
<g>
</g>
<g>
</g>
<g>
</g>
</svg>
